<svg width="16" height="20" viewBox="0 0 16 20" fill="none" xmlns="http://www.w3.org/2000/svg">
<path fill-rule="evenodd" clip-rule="evenodd" d="M7.98632 13.0671C4.44065 13.0671 1.41382 13.6034 1.41382 15.7502C1.41382 17.8971 4.4214 18.4526 7.98632 18.4526C11.5311 18.4526 14.5588 17.9154 14.5588 15.7695C14.5588 13.6236 11.5503 13.0671 7.98632 13.0671V13.0671Z" stroke="#272343" stroke-width="1.5" stroke-linecap="round" stroke-linejoin="round"/>
<path fill-rule="evenodd" clip-rule="evenodd" d="M7.98634 10.0056C8.81959 10.0056 9.63413 9.7585 10.327 9.29557C11.0198 8.83264 11.5598 8.17466 11.8786 7.40484C12.1975 6.63501 12.2809 5.78792 12.1184 4.97068C11.9558 4.15343 11.5546 3.40275 10.9654 2.81355C10.3762 2.22435 9.6255 1.8231 8.80826 1.66054C7.99101 1.49798 7.14392 1.58142 6.3741 1.90029C5.60427 2.21916 4.94629 2.75915 4.48336 3.45197C4.02043 4.1448 3.77334 4.95934 3.77334 5.79259C3.76944 6.9059 4.20791 7.97518 4.9923 8.76524C5.7767 9.55531 6.84278 10.0015 7.95609 10.0056H7.98634Z" stroke="#272343" stroke-width="1.429" stroke-linecap="round" stroke-linejoin="round"/>
</svg>
